<?xml version="1.0" encoding="UTF-8" standalone="no"?><!DOCTYPE svg PUBLIC "-//W3C//DTD SVG 1.1//EN" "http://www.w3.org/Graphics/SVG/1.1/DTD/svg11.dtd"><svg width="100%" height="100%" viewBox="0 0 1080 1080" version="1.1" xmlns="http://www.w3.org/2000/svg" xmlns:xlink="http://www.w3.org/1999/xlink" xml:space="preserve" xmlns:serif="http://www.serif.com/" style="fill-rule:evenodd;clip-rule:evenodd;stroke-linejoin:round;stroke-miterlimit:2;"><g id="g1"><path id="path2" d="M772.447,399.941l-73.65,288.935l-69.603,0l-39.253,-151.752c-0.809,-2.968 -1.888,-7.419 -3.237,-13.354c-1.079,-5.935 -2.428,-12.41 -4.047,-19.424c-1.348,-7.014 -2.563,-13.624 -3.642,-19.829c-1.079,-6.475 -1.889,-11.466 -2.428,-14.973c-0.27,3.507 -1.079,8.498 -2.428,14.973c-1.079,6.205 -2.293,12.815 -3.642,19.829c-1.349,6.744 -2.698,13.219 -4.047,19.424c-1.348,5.935 -2.428,10.522 -3.237,13.759l-38.848,151.347l-69.603,0l-73.65,-288.935l60.296,0l36.825,157.822c1.619,6.205 3.372,14.029 5.261,23.471c1.888,9.442 3.642,18.885 5.261,28.327c1.619,9.442 2.833,17.401 3.642,23.875c0.809,-6.744 2.023,-14.703 3.642,-23.875c1.619,-9.442 3.237,-18.48 4.856,-27.113c1.889,-8.903 3.507,-15.782 4.856,-20.638l42.086,-161.868l57.868,0l42.086,161.868c1.348,4.586 2.833,11.331 4.451,20.234c1.889,8.903 3.642,18.075 5.261,27.518c1.619,9.442 2.833,17.401 3.642,23.875c0.809,-6.744 2.023,-14.703 3.642,-23.875c1.619,-9.442 3.372,-18.885 5.261,-28.327c2.158,-9.442 3.912,-17.266 5.261,-23.471l36.825,-157.822l60.296,-0Z" style="fill:#2dd4bf;fill-rule:nonzero;"/><path d="M388.236,399.941c16.484,-5.878 35.587,-8.816 57.31,-8.816c31.294,0 57.059,6.205 77.292,18.615c20.503,12.14 35.611,29.406 45.323,51.798c9.712,22.122 14.568,48.156 14.568,78.101c0,29.946 -4.991,56.114 -14.973,78.506c-9.712,22.122 -24.685,39.388 -44.918,51.798c-20.234,12.41 -46.132,18.615 -77.697,18.615c-31.294,0 -57.193,-6.205 -77.697,-18.615c-20.234,-12.41 -35.341,-29.811 -45.323,-52.203c-9.712,-22.392 -14.568,-48.561 -14.568,-78.506c0,-29.676 4.856,-55.575 14.568,-77.697c9.982,-22.392 25.09,-39.658 45.323,-51.798c4.506,-2.727 9.278,-5.154 14.318,-7.282l14.54,57.824c-2.407,2.457 -4.608,5.169 -6.601,8.135c-11.331,17.266 -16.996,41.007 -16.996,71.222c0,30.215 5.665,53.956 16.996,71.222c11.601,16.996 30.08,25.494 55.44,25.494c25.899,0 44.379,-8.498 55.44,-25.494c11.331,-17.266 16.996,-41.007 16.996,-71.222c0,-30.215 -5.665,-53.956 -16.996,-71.222c-10.2,-15.922 -26.595,-24.503 -49.185,-25.742l-9.971,-42.734l-53.19,-0Z" style="fill:#fff;"/></g></svg>