<svg width="100" height="100" viewBox="0 0 100 100" fill="none" xmlns="http://www.w3.org/2000/svg">
<path d="M50 55C50 55 46 45 35 40C24 35 15 42 10 50C5 58 12 70 20 72C28 74 45 60 50 55Z" fill="currentColor" fill-opacity="0.6"/>
<path d="M50 55C50 55 54 45 65 40C76 35 85 42 90 50C95 58 88 70 80 72C72 74 55 60 50 55Z" fill="currentColor" fill-opacity="0.6"/>
<path d="M50 55C50 55 42 35 25 20C8 5 5 15 10 30C15 45 45 50 50 55Z" fill="currentColor" fill-opacity="0.8"/>
<path d="M50 55C50 55 58 35 75 20C92 5 95 15 90 30C85 45 55 50 50 55Z" fill="currentColor" fill-opacity="0.8"/>
<path d="M50 20V60" stroke="currentColor" stroke-width="2" stroke-linecap="round"/>
</svg>
